<svg xmlns="http://www.w3.org/2000/svg" width="1200" height="320" viewBox="0 0 1200 320" fill="none">
  <path fill="#D5A23B" fill-opacity="0.18" d="M0 272h85v-68h22v-34h12v-27h9v27h12v34h22v68h74v-96h18v-35h15v-30h14v-26h8v26h14v30h15v35h18v96h67v-57h36c4-42 38-76 80-82-15-9-24-26-24-45 0-31 25-56 56-56s56 25 56 56c0 19-9 36-24 45 42 6 76 40 80 82h36v57h68v-96h18v-35h15v-30h14v-26h8v26h14v30h15v35h18v96h74v-68h22v-34h12v-27h9v27h12v34h22v68h85v48H0v-48Zm455 0h290v-49c0-61-49-110-110-110h-70c-61 0-110 49-110 110v49Z"/>
  <path stroke="#D5A23B" stroke-opacity="0.3" stroke-width="3" d="M431 272v-49c0-74 60-134 134-134h70c74 0 134 60 134 134v49"/>
</svg>
