<svg xmlns="http://www.w3.org/2000/svg" width="240" height="240" viewBox="0 0 240 240" fill="none">
  <g stroke="#D5A23B" stroke-width="1.4" opacity="0.72">
    <path d="M120 6 137 65 180 18 163 77 222 60 175 103 234 120 175 137 222 180 163 163 180 222 137 175 120 234 103 175 60 222 77 163 18 180 65 137 6 120 65 103 18 60 77 77 60 18 103 65Z"/>
    <path d="m120 45 22 53 53 22-53 22-22 53-22-53-53-22 53-22Z"/>
    <path d="m120 65 16 39 39 16-39 16-16 39-16-39-39-16 39-16Z"/>
    <circle cx="120" cy="120" r="29"/>
    <path d="M0 0 60 18 77 77 18 60 0 0ZM240 0l-60 18-17 59 59-17 18-60ZM0 240l60-18 17-59-59 17-18 60ZM240 240l-60-18-17-59 59 17 18 60Z"/>
    <path d="M0 120h45M195 120h45M120 0v45M120 195v45"/>
  </g>
</svg>
